solid OBJECT
  facet normal 0.99068593575418273 -0.13616672390440873 0
    outer loop
      vertex 1 0 1
      vertex 0.9629172682762146 -0.26979675889015198 1
      vertex 0.9629172682762146 -0.26979675889015198 0
    endloop
  endfacet
  facet normal 0.99068593575418273 -0.13616672390440873 0
    outer loop
      vertex 1 0 1
      vertex 0.9629172682762146 -0.26979675889015198 0
      vertex 1 0 0
    endloop
  endfacet
  facet normal 0.91721133631568386 -0.398401009705043 0
    outer loop
      vertex 0.9629172682762146 -0.26979675889015198 1
      vertex 0.85441941022872925 -0.51958394050598145 1
      vertex 0.85441941022872925 -0.51958394050598145 0
    endloop
  endfacet
  facet normal 0.91721133631568386 -0.398401009705043 0
    outer loop
      vertex 0.9629172682762146 -0.26979675889015198 1
      vertex 0.85441941022872925 -0.51958394050598145 0
      vertex 0.9629172682762146 -0.26979675889015198 0
    endloop
  endfacet
  facet normal 0.77571136089799009 -0.63108785804655465 0
    outer loop
      vertex 0.85441941022872925 -0.51958394050598145 1
      vertex 0.68255317211151123 -0.73083597421646118 1
      vertex 0.68255317211151123 -0.73083597421646118 0
    endloop
  endfacet
  facet normal 0.77571136089799009 -0.63108785804655465 0
    outer loop
      vertex 0.85441941022872925 -0.51958394050598145 1
      vertex 0.68255317211151123 -0.73083597421646118 0
      vertex 0.85441941022872925 -0.51958394050598145 0
    endloop
  endfacet
  facet normal 0.57668023304025451 -0.81696995588616228 -0
    outer loop
      vertex 0.68255317211151123 -0.73083597421646118 1
      vertex 0.46006503701210022 -0.88788521289825439 1
      vertex 0.46006503701210022 -0.88788521289825439 0
    endloop
  endfacet
  facet normal 0.57668023304025451 -0.81696995588616228 0
    outer loop
      vertex 0.68255317211151123 -0.73083597421646118 1
      vertex 0.46006503701210022 -0.88788521289825439 0
      vertex 0.68255317211151123 -0.73083597421646118 0
    endloop
  endfacet
  facet normal 0.33487958951783103 -0.94226093016975343 -0
    outer loop
      vertex 0.46006503701210022 -0.88788521289825439 1
      vertex 0.20345601439476013 -0.9790840744972229 1
      vertex 0.20345601439476013 -0.9790840744972229 0
    endloop
  endfacet
  facet normal 0.33487958951783103 -0.94226093016975343 0
    outer loop
      vertex 0.46006503701210022 -0.88788521289825439 1
      vertex 0.20345601439476013 -0.9790840744972229 0
      vertex 0.46006503701210022 -0.88788521289825439 0
    endloop
  endfacet
  facet normal 0.068242365378751751 -0.99766877247286467 -0
    outer loop
      vertex 0.20345601439476013 -0.9790840744972229 1
      vertex -0.06824241578578949 -0.99766874313354492 1
      vertex -0.06824241578578949 -0.99766874313354492 0
    endloop
  endfacet
  facet normal 0.068242365378751751 -0.99766877247286467 0
    outer loop
      vertex 0.20345601439476013 -0.9790840744972229 1
      vertex -0.06824241578578949 -0.99766874313354492 0
      vertex 0.20345601439476013 -0.9790840744972229 0
    endloop
  endfacet
  facet normal -0.20345593084685781 -0.97908410476487606 -0
    outer loop
      vertex -0.06824241578578949 -0.99766874313354492 1
      vertex -0.33487960696220398 -0.94226092100143433 1
      vertex -0.33487960696220398 -0.94226092100143433 0
    endloop
  endfacet
  facet normal -0.20345593084685781 -0.97908410476487606 0
    outer loop
      vertex -0.06824241578578949 -0.99766874313354492 1
      vertex -0.33487960696220398 -0.94226092100143433 0
      vertex -0.06824241578578949 -0.99766874313354492 0
    endloop
  endfacet
  facet normal -0.46006511813186096 -0.88788517674208134 -0
    outer loop
      vertex -0.33487960696220398 -0.94226092100143433 1
      vertex -0.57668030261993408 -0.81696987152099609 1
      vertex -0.57668030261993408 -0.81696987152099609 0
    endloop
  endfacet
  facet normal -0.46006511813186096 -0.88788517674208134 0
    outer loop
      vertex -0.33487960696220398 -0.94226092100143433 1
      vertex -0.57668030261993408 -0.81696987152099609 0
      vertex -0.33487960696220398 -0.94226092100143433 0
    endloop
  endfacet
  facet normal -0.68255302360752768 -0.73083607598709988 -0
    outer loop
      vertex -0.57668030261993408 -0.81696987152099609 1
      vertex -0.7757112979888916 -0.63108795881271362 1
      vertex -0.7757112979888916 -0.63108795881271362 0
    endloop
  endfacet
  facet normal -0.68255302360752768 -0.73083607598709988 0
    outer loop
      vertex -0.57668030261993408 -0.81696987152099609 1
      vertex -0.7757112979888916 -0.63108795881271362 0
      vertex -0.57668030261993408 -0.81696987152099609 0
    endloop
  endfacet
  facet normal -0.85441945094527949 -0.51958387373586479 -0
    outer loop
      vertex -0.7757112979888916 -0.63108795881271362 1
      vertex -0.91721129417419434 -0.39840108156204224 1
      vertex -0.91721129417419434 -0.39840108156204224 0
    endloop
  endfacet
  facet normal -0.85441945094527949 -0.51958387373586479 0
    outer loop
      vertex -0.7757112979888916 -0.63108795881271362 1
      vertex -0.91721129417419434 -0.39840108156204224 0
      vertex -0.7757112979888916 -0.63108795881271362 0
    endloop
  endfacet
  facet normal -0.96291728463954529 -0.26979678082290942 -0
    outer loop
      vertex -0.91721129417419434 -0.39840108156204224 1
      vertex -0.99068593978881836 -0.13616664707660675 1
      vertex -0.99068593978881836 -0.13616664707660675 0
    endloop
  endfacet
  facet normal -0.96291728463954529 -0.26979678082290942 0
    outer loop
      vertex -0.91721129417419434 -0.39840108156204224 1
      vertex -0.99068593978881836 -0.13616664707660675 0
      vertex -0.91721129417419434 -0.39840108156204224 0
    endloop
  endfacet
  facet normal -1 -0 -0
    outer loop
      vertex -0.99068593978881836 -0.13616664707660675 1
      vertex -0.99068593978881836 0.13616664707660675 1
      vertex -0.99068593978881836 0.13616664707660675 0
    endloop
  endfacet
  facet normal -1 0 0
    outer loop
      vertex -0.99068593978881836 -0.13616664707660675 1
      vertex -0.99068593978881836 0.13616664707660675 0
      vertex -0.99068593978881836 -0.13616664707660675 0
    endloop
  endfacet
  facet normal -0.96291728463954529 0.26979678082290942 -0
    outer loop
      vertex -0.99068593978881836 0.13616664707660675 1
      vertex -0.91721129417419434 0.39840108156204224 1
      vertex -0.91721129417419434 0.39840108156204224 0
    endloop
  endfacet
  facet normal -0.96291728463954529 0.26979678082290942 0
    outer loop
      vertex -0.99068593978881836 0.13616664707660675 1
      vertex -0.91721129417419434 0.39840108156204224 0
      vertex -0.99068593978881836 0.13616664707660675 0
    endloop
  endfacet
  facet normal -0.85441945094527949 0.51958387373586479 -0
    outer loop
      vertex -0.91721129417419434 0.39840108156204224 1
      vertex -0.7757112979888916 0.63108795881271362 1
      vertex -0.7757112979888916 0.63108795881271362 0
    endloop
  endfacet
  facet normal -0.85441945094527949 0.51958387373586479 0
    outer loop
      vertex -0.91721129417419434 0.39840108156204224 1
      vertex -0.7757112979888916 0.63108795881271362 0
      vertex -0.91721129417419434 0.39840108156204224 0
    endloop
  endfacet
  facet normal -0.68255302360752768 0.73083607598709988 0
    outer loop
      vertex -0.7757112979888916 0.63108795881271362 1
      vertex -0.57668030261993408 0.81696987152099609 1
      vertex -0.57668030261993408 0.81696987152099609 0
    endloop
  endfacet
  facet normal -0.68255302360752768 0.73083607598709988 0
    outer loop
      vertex -0.7757112979888916 0.63108795881271362 1
      vertex -0.57668030261993408 0.81696987152099609 0
      vertex -0.7757112979888916 0.63108795881271362 0
    endloop
  endfacet
  facet normal -0.46006511813186096 0.88788517674208134 0
    outer loop
      vertex -0.57668030261993408 0.81696987152099609 1
      vertex -0.33487960696220398 0.94226092100143433 1
      vertex -0.33487960696220398 0.94226092100143433 0
    endloop
  endfacet
  facet normal -0.46006511813186096 0.88788517674208134 0
    outer loop
      vertex -0.57668030261993408 0.81696987152099609 1
      vertex -0.33487960696220398 0.94226092100143433 0
      vertex -0.57668030261993408 0.81696987152099609 0
    endloop
  endfacet
  facet normal -0.20345593084685781 0.97908410476487606 0
    outer loop
      vertex -0.33487960696220398 0.94226092100143433 1
      vertex -0.06824241578578949 0.99766874313354492 1
      vertex -0.06824241578578949 0.99766874313354492 0
    endloop
  endfacet
  facet normal -0.20345593084685781 0.97908410476487606 0
    outer loop
      vertex -0.33487960696220398 0.94226092100143433 1
      vertex -0.06824241578578949 0.99766874313354492 0
      vertex -0.33487960696220398 0.94226092100143433 0
    endloop
  endfacet
  facet normal 0.068242365378751751 0.99766877247286467 0
    outer loop
      vertex -0.06824241578578949 0.99766874313354492 1
      vertex 0.20345601439476013 0.9790840744972229 1
      vertex 0.20345601439476013 0.9790840744972229 0
    endloop
  endfacet
  facet normal 0.068242365378751751 0.99766877247286467 0
    outer loop
      vertex -0.06824241578578949 0.99766874313354492 1
      vertex 0.20345601439476013 0.9790840744972229 0
      vertex -0.06824241578578949 0.99766874313354492 0
    endloop
  endfacet
  facet normal 0.33487958951783103 0.94226093016975343 0
    outer loop
      vertex 0.20345601439476013 0.9790840744972229 1
      vertex 0.46006503701210022 0.88788521289825439 1
      vertex 0.46006503701210022 0.88788521289825439 0
    endloop
  endfacet
  facet normal 0.33487958951783103 0.94226093016975343 0
    outer loop
      vertex 0.20345601439476013 0.9790840744972229 1
      vertex 0.46006503701210022 0.88788521289825439 0
      vertex 0.20345601439476013 0.9790840744972229 0
    endloop
  endfacet
  facet normal 0.57668023304025451 0.81696995588616228 0
    outer loop
      vertex 0.46006503701210022 0.88788521289825439 1
      vertex 0.68255317211151123 0.73083597421646118 1
      vertex 0.68255317211151123 0.73083597421646118 0
    endloop
  endfacet
  facet normal 0.57668023304025451 0.81696995588616228 0
    outer loop
      vertex 0.46006503701210022 0.88788521289825439 1
      vertex 0.68255317211151123 0.73083597421646118 0
      vertex 0.46006503701210022 0.88788521289825439 0
    endloop
  endfacet
  facet normal 0.77571136089799009 0.63108785804655465 0
    outer loop
      vertex 0.68255317211151123 0.73083597421646118 1
      vertex 0.85441941022872925 0.51958394050598145 1
      vertex 0.85441941022872925 0.51958394050598145 0
    endloop
  endfacet
  facet normal 0.77571136089799009 0.63108785804655465 0
    outer loop
      vertex 0.68255317211151123 0.73083597421646118 1
      vertex 0.85441941022872925 0.51958394050598145 0
      vertex 0.68255317211151123 0.73083597421646118 0
    endloop
  endfacet
  facet normal 0.91721133631568386 0.398401009705043 0
    outer loop
      vertex 0.85441941022872925 0.51958394050598145 1
      vertex 0.9629172682762146 0.26979675889015198 1
      vertex 0.9629172682762146 0.26979675889015198 0
    endloop
  endfacet
  facet normal 0.91721133631568386 0.398401009705043 0
    outer loop
      vertex 0.85441941022872925 0.51958394050598145 1
      vertex 0.9629172682762146 0.26979675889015198 0
      vertex 0.85441941022872925 0.51958394050598145 0
    endloop
  endfacet
  facet normal 0.99068593575418273 0.13616672390440873 0
    outer loop
      vertex 0.9629172682762146 0.26979675889015198 1
      vertex 1 0 1
      vertex 1 0 0
    endloop
  endfacet
  facet normal 0.99068593575418273 0.13616672390440873 -0
    outer loop
      vertex 0.9629172682762146 0.26979675889015198 1
      vertex 1 0 0
      vertex 0.9629172682762146 0.26979675889015198 0
    endloop
  endfacet
  facet normal 0 -0 1
    outer loop
      vertex -0.57668030261993408 0.81696987152099609 1
      vertex -0.7757112979888916 0.63108795881271362 1
      vertex -0.91721129417419434 0.39840108156204224 1
    endloop
  endfacet
  facet normal 0 -0 1
    outer loop
      vertex -0.06824241578578949 0.99766874313354492 1
      vertex -0.33487960696220398 0.94226092100143433 1
      vertex -0.57668030261993408 0.81696987152099609 1
    endloop
  endfacet
  facet normal -0 0 1
    outer loop
      vertex -0.99068593978881836 0.13616664707660675 1
      vertex -0.57668030261993408 0.81696987152099609 1
      vertex -0.91721129417419434 0.39840108156204224 1
    endloop
  endfacet
  facet normal 0 -0 1
    outer loop
      vertex -0.57668030261993408 0.81696987152099609 1
      vertex -0.91721129417419434 -0.39840108156204224 1
      vertex 0.68255317211151123 0.73083597421646118 1
    endloop
  endfacet
  facet normal 0 0 1
    outer loop
      vertex -0.99068593978881836 -0.13616664707660675 1
      vertex -0.91721129417419434 -0.39840108156204224 1
      vertex -0.99068593978881836 0.13616664707660675 1
    endloop
  endfacet
  facet normal -0 0 1
    outer loop
      vertex -0.91721129417419434 -0.39840108156204224 1
      vertex -0.57668030261993408 0.81696987152099609 1
      vertex -0.99068593978881836 0.13616664707660675 1
    endloop
  endfacet
  facet normal 0 0 1
    outer loop
      vertex -0.7757112979888916 -0.63108795881271362 1
      vertex -0.57668030261993408 -0.81696987152099609 1
      vertex -0.91721129417419434 -0.39840108156204224 1
    endloop
  endfacet
  facet normal 0 -0 1
    outer loop
      vertex -0.57668030261993408 -0.81696987152099609 1
      vertex -0.06824241578578949 -0.99766874313354492 1
      vertex -0.91721129417419434 -0.39840108156204224 1
    endloop
  endfacet
  facet normal 0 0 1
    outer loop
      vertex -0.33487960696220398 -0.94226092100143433 1
      vertex -0.06824241578578949 -0.99766874313354492 1
      vertex -0.57668030261993408 -0.81696987152099609 1
    endloop
  endfacet
  facet normal 0 0 1
    outer loop
      vertex -0.57668030261993408 0.81696987152099609 1
      vertex 0.68255317211151123 0.73083597421646118 1
      vertex -0.06824241578578949 0.99766874313354492 1
    endloop
  endfacet
  facet normal 0 0 1
    outer loop
      vertex -0.06824241578578949 0.99766874313354492 1
      vertex 0.68255317211151123 0.73083597421646118 1
      vertex 0.46006503701210022 0.88788521289825439 1
    endloop
  endfacet
  facet normal -0 0 1
    outer loop
      vertex -0.06824241578578949 -0.99766874313354492 1
      vertex 0.68255317211151123 0.73083597421646118 1
      vertex -0.91721129417419434 -0.39840108156204224 1
    endloop
  endfacet
  facet normal -0 0 1
    outer loop
      vertex 0.68255317211151123 -0.73083597421646118 1
      vertex 0.9629172682762146 0.26979675889015198 1
      vertex 0.68255317211151123 0.73083597421646118 1
    endloop
  endfacet
  facet normal -0 0 1
    outer loop
      vertex 0.85441941022872925 0.51958394050598145 1
      vertex 0.68255317211151123 0.73083597421646118 1
      vertex 0.9629172682762146 0.26979675889015198 1
    endloop
  endfacet
  facet normal -0 0 1
    outer loop
      vertex 0.9629172682762146 0.26979675889015198 1
      vertex 0.68255317211151123 -0.73083597421646118 1
      vertex 1 0 1
    endloop
  endfacet
  facet normal 0 0 1
    outer loop
      vertex 0.46006503701210022 -0.88788521289825439 1
      vertex 0.68255317211151123 -0.73083597421646118 1
      vertex 0.20345601439476013 -0.9790840744972229 1
    endloop
  endfacet
  facet normal 0 0 1
    outer loop
      vertex -0.06824241578578949 -0.99766874313354492 1
      vertex 0.20345601439476013 -0.9790840744972229 1
      vertex 0.68255317211151123 -0.73083597421646118 1
    endloop
  endfacet
  facet normal -0 0 1
    outer loop
      vertex -0.06824241578578949 -0.99766874313354492 1
      vertex 0.68255317211151123 -0.73083597421646118 1
      vertex 0.68255317211151123 0.73083597421646118 1
    endloop
  endfacet
  facet normal 0 0 1
    outer loop
      vertex 0.68255317211151123 -0.73083597421646118 1
      vertex 0.85441941022872925 -0.51958394050598145 1
      vertex 1 0 1
    endloop
  endfacet
  facet normal -0 0 1
    outer loop
      vertex 0.85441941022872925 -0.51958394050598145 1
      vertex 0.9629172682762146 -0.26979675889015198 1
      vertex 1 0 1
    endloop
  endfacet
  facet normal -0 -0 1
    outer loop
      vertex 0.46006503701210022 0.88788521289825439 1
      vertex 0.20345601439476013 0.9790840744972229 1
      vertex -0.06824241578578949 0.99766874313354492 1
    endloop
  endfacet
  facet normal 0 -0 -1
    outer loop
      vertex -0.57668030261993408 0.81696987152099609 0
      vertex -0.91721129417419434 0.39840108156204224 0
      vertex -0.7757112979888916 0.63108795881271362 0
    endloop
  endfacet
  facet normal 0 -0 -1
    outer loop
      vertex -0.06824241578578949 0.99766874313354492 0
      vertex -0.57668030261993408 0.81696987152099609 0
      vertex -0.33487960696220398 0.94226092100143433 0
    endloop
  endfacet
  facet normal -0 0 -1
    outer loop
      vertex -0.99068593978881836 0.13616664707660675 0
      vertex -0.91721129417419434 0.39840108156204224 0
      vertex -0.57668030261993408 0.81696987152099609 0
    endloop
  endfacet
  facet normal 0 -0 -1
    outer loop
      vertex -0.57668030261993408 0.81696987152099609 0
      vertex 0.68255317211151123 0.73083597421646118 0
      vertex -0.91721129417419434 -0.39840108156204224 0
    endloop
  endfacet
  facet normal 0 0 -1
    outer loop
      vertex -0.99068593978881836 -0.13616664707660675 0
      vertex -0.99068593978881836 0.13616664707660675 0
      vertex -0.91721129417419434 -0.39840108156204224 0
    endloop
  endfacet
  facet normal -0 0 -1
    outer loop
      vertex -0.91721129417419434 -0.39840108156204224 0
      vertex -0.99068593978881836 0.13616664707660675 0
      vertex -0.57668030261993408 0.81696987152099609 0
    endloop
  endfacet
  facet normal -0 -0 -1
    outer loop
      vertex -0.7757112979888916 -0.63108795881271362 0
      vertex -0.91721129417419434 -0.39840108156204224 0
      vertex -0.57668030261993408 -0.81696987152099609 0
    endloop
  endfacet
  facet normal 0 -0 -1
    outer loop
      vertex -0.57668030261993408 -0.81696987152099609 0
      vertex -0.91721129417419434 -0.39840108156204224 0
      vertex -0.06824241578578949 -0.99766874313354492 0
    endloop
  endfacet
  facet normal 0 -0 -1
    outer loop
      vertex -0.33487960696220398 -0.94226092100143433 0
      vertex -0.57668030261993408 -0.81696987152099609 0
      vertex -0.06824241578578949 -0.99766874313354492 0
    endloop
  endfacet
  facet normal 0 0 -1
    outer loop
      vertex -0.57668030261993408 0.81696987152099609 0
      vertex -0.06824241578578949 0.99766874313354492 0
      vertex 0.68255317211151123 0.73083597421646118 0
    endloop
  endfacet
  facet normal 0 0 -1
    outer loop
      vertex -0.06824241578578949 0.99766874313354492 0
      vertex 0.46006503701210022 0.88788521289825439 0
      vertex 0.68255317211151123 0.73083597421646118 0
    endloop
  endfacet
  facet normal -0 0 -1
    outer loop
      vertex -0.06824241578578949 -0.99766874313354492 0
      vertex -0.91721129417419434 -0.39840108156204224 0
      vertex 0.68255317211151123 0.73083597421646118 0
    endloop
  endfacet
  facet normal -0 0 -1
    outer loop
      vertex 0.68255317211151123 -0.73083597421646118 0
      vertex 0.68255317211151123 0.73083597421646118 0
      vertex 0.9629172682762146 0.26979675889015198 0
    endloop
  endfacet
  facet normal 0 0 -1
    outer loop
      vertex 0.85441941022872925 0.51958394050598145 0
      vertex 0.9629172682762146 0.26979675889015198 0
      vertex 0.68255317211151123 0.73083597421646118 0
    endloop
  endfacet
  facet normal -0 0 -1
    outer loop
      vertex 0.9629172682762146 0.26979675889015198 0
      vertex 1 0 0
      vertex 0.68255317211151123 -0.73083597421646118 0
    endloop
  endfacet
  facet normal 0 -0 -1
    outer loop
      vertex 0.46006503701210022 -0.88788521289825439 0
      vertex 0.20345601439476013 -0.9790840744972229 0
      vertex 0.68255317211151123 -0.73083597421646118 0
    endloop
  endfacet
  facet normal 0 0 -1
    outer loop
      vertex -0.06824241578578949 -0.99766874313354492 0
      vertex 0.68255317211151123 -0.73083597421646118 0
      vertex 0.20345601439476013 -0.9790840744972229 0
    endloop
  endfacet
  facet normal -0 0 -1
    outer loop
      vertex -0.06824241578578949 -0.99766874313354492 0
      vertex 0.68255317211151123 0.73083597421646118 0
      vertex 0.68255317211151123 -0.73083597421646118 0
    endloop
  endfacet
  facet normal 0 0 -1
    outer loop
      vertex 0.68255317211151123 -0.73083597421646118 0
      vertex 1 0 0
      vertex 0.85441941022872925 -0.51958394050598145 0
    endloop
  endfacet
  facet normal -0 0 -1
    outer loop
      vertex 0.85441941022872925 -0.51958394050598145 0
      vertex 1 0 0
      vertex 0.9629172682762146 -0.26979675889015198 0
    endloop
  endfacet
  facet normal -0 -0 -1
    outer loop
      vertex 0.46006503701210022 0.88788521289825439 0
      vertex -0.06824241578578949 0.99766874313354492 0
      vertex 0.20345601439476013 0.9790840744972229 0
    endloop
  endfacet
endsolid OBJECT
